<svg width="30" height="31" viewBox="0 0 30 31" fill="currentColor" xmlns="http://www.w3.org/2000/svg">
<g clip-path="url(#clip0_2535_42822)">
<path d="M23.7506 11.3875L17.0843 6.20246C16.4993 5.74734 15.7793 5.50024 15.0381 5.50024C14.2969 5.50024 13.5768 5.74734 12.9918 6.20246L6.32434 11.3875C5.92364 11.6991 5.59945 12.0981 5.37653 12.5541C5.15361 13.0102 5.03785 13.5111 5.03809 14.0187V23.0187C5.03809 23.6817 5.30148 24.3176 5.77032 24.7865C6.23916 25.2553 6.87504 25.5187 7.53809 25.5187H22.5381C23.2011 25.5187 23.837 25.2553 24.3059 24.7865C24.7747 24.3176 25.0381 23.6817 25.0381 23.0187V14.0187C25.0381 12.99 24.5631 12.0187 23.7506 11.3875Z" fill="currentColor" stroke="white" stroke-width="2.5" stroke-linecap="round" stroke-linejoin="round"/>
</g>
<defs>
<clipPath id="clip0_2535_42822">
<rect width="30" height="30" fill="currentColor" transform="translate(0 0.5)"/>
</clipPath>
</defs>
</svg>
